<?xml version="1.0" standalone="no"?>
<!DOCTYPE svg PUBLIC "-//W3C//DTD SVG 20010904//EN"
 "http://www.w3.org/TR/2001/REC-SVG-20010904/DTD/svg10.dtd">
<svg version="1.0" xmlns="http://www.w3.org/2000/svg"
 width="570.000000pt" height="443.000000pt" viewBox="0 0 570.000000 443.000000"
 preserveAspectRatio="xMidYMid meet">

<g transform="translate(0.000000,443.000000) scale(0.100000,-0.100000)"
fill="#000000" stroke="none">
<path d="M2712 4273 c-16 -31 -42 -130 -42 -161 0 -16 -18 -74 -39 -128 -44
-110 -59 -199 -42 -259 6 -26 7 -54 1 -80 -7 -33 -6 -47 10 -78 11 -21 20 -57
20 -82 0 -24 10 -70 22 -102 20 -54 20 -64 10 -158 -15 -140 -26 -170 -70
-200 -52 -36 -80 -33 -98 10 -16 38 -18 126 -4 195 10 54 6 64 -22 49 -37 -20
-39 3 -13 128 31 150 41 294 26 395 -10 73 -28 128 -40 128 -3 0 -6 -51 -7
-113 -1 -135 -10 -181 -81 -407 -73 -231 -93 -313 -93 -373 0 -48 1 -50 19
-33 17 15 19 15 25 1 9 -26 7 -84 -4 -106 -14 -25 -32 -24 -58 4 -32 34 -45
104 -40 219 4 98 7 110 66 254 71 176 81 214 88 343 l5 96 -24 -76 c-13 -44
-45 -111 -76 -159 -175 -275 -290 -579 -316 -832 -7 -65 -2 -68 47 -38 18 11
41 20 50 20 49 0 49 -106 0 -176 l-31 -43 6 -110 c6 -113 -6 -211 -33 -262 -7
-15 -30 -48 -50 -74 l-36 -48 52 -102 52 -102 -21 -48 -22 -49 23 -31 c13 -18
58 -71 102 -118 88 -97 111 -126 102 -134 -6 -6 -56 33 -131 100 -22 20 -43
37 -47 37 -13 0 -28 -100 -18 -119 15 -28 75 -99 157 -184 109 -113 85 -118
-40 -8 -58 50 -77 56 -77 23 0 -9 -9 -36 -20 -59 l-19 -42 28 -38 c31 -42 87
-100 174 -181 98 -91 63 -90 -47 2 -27 22 -51 36 -53 31 -12 -37 -49 -78 -89
-98 l-47 -24 97 -107 c54 -58 106 -111 116 -116 10 -6 50 -10 89 -10 42 0 73
-5 77 -12 15 -23 1 -174 -23 -252 -6 -20 101 97 175 192 61 78 163 296 163
347 0 22 7 57 16 77 13 31 14 47 5 90 -6 32 -7 57 -1 62 14 15 11 68 -6 116
-11 32 -12 46 -4 56 14 17 5 73 -20 129 -10 22 -68 105 -130 183 -61 80 -111
153 -111 165 0 25 108 130 152 148 59 24 78 -8 56 -93 -17 -62 -14 -68 23 -39
45 34 108 61 146 61 37 0 79 -20 144 -69 l32 -25 -7 25 c-18 64 -27 121 -22
134 19 50 169 -45 209 -132 12 -26 -1 -46 -139 -221 -102 -128 -147 -235 -113
-269 7 -7 6 -25 -4 -61 -12 -40 -14 -73 -7 -168 13 -176 18 -203 49 -269 16
-33 45 -94 65 -135 35 -72 231 -328 243 -316 3 3 -1 31 -10 63 -14 52 -22 130
-18 191 1 21 5 22 70 22 89 0 112 9 164 67 23 26 66 71 95 101 28 29 52 55 52
56 0 2 -22 17 -49 33 -35 22 -53 41 -62 67 -7 20 -16 36 -19 36 -4 0 -24 -15
-46 -33 -103 -86 -145 -90 -50 -5 78 70 186 202 186 227 0 9 -8 40 -18 69
l-19 52 -39 -33 c-127 -107 -148 -100 -39 14 122 129 139 157 131 216 -3 26
-10 51 -14 55 -5 5 -44 -21 -88 -58 -132 -110 -154 -109 -51 3 118 130 177
200 177 212 0 6 -9 30 -20 52 l-21 39 55 103 54 102 -33 40 c-19 22 -47 65
-62 95 -27 53 -28 61 -29 210 -1 154 -1 155 -33 214 -39 74 -42 128 -7 151 22
15 27 15 55 1 16 -9 33 -20 36 -26 13 -21 25 -9 25 26 0 53 -44 236 -85 354
-43 123 -104 254 -203 438 -40 73 -82 167 -94 207 -13 41 -27 75 -32 75 -5 0
-7 -46 -4 -103 4 -91 9 -112 42 -187 20 -47 56 -134 78 -195 38 -101 42 -118
42 -210 0 -84 -3 -108 -23 -153 -28 -63 -56 -83 -77 -55 -16 22 -18 62 -4 98
9 23 13 25 25 15 8 -7 15 -9 16 -4 0 5 2 16 4 25 5 26 -14 118 -45 214 -15 50
-50 167 -76 260 -42 151 -48 185 -54 305 l-6 135 -18 -40 c-14 -30 -21 -75
-25 -180 -6 -125 -4 -150 16 -235 13 -52 26 -123 29 -157 7 -66 2 -73 -36 -53
-17 9 -18 3 -13 -113 5 -114 4 -124 -16 -149 -14 -17 -28 -25 -39 -22 -46 15
-64 32 -88 81 -23 45 -27 71 -32 166 -3 89 -1 120 12 151 9 21 16 56 16 78 0
21 7 55 16 76 11 26 17 77 20 172 4 143 0 161 -46 270 -16 36 -35 103 -43 150
-14 78 -32 140 -40 140 -2 0 -4 -55 -4 -122 0 -68 -6 -145 -12 -172 -11 -46
-10 -50 19 -94 16 -25 30 -52 30 -61 0 -20 -39 -75 -63 -91 -17 -10 -24 -7
-54 22 -43 43 -45 80 -9 134 26 40 26 42 15 115 -7 45 -9 114 -5 177 4 56 4
102 2 102 -3 0 -9 -8 -14 -17z m-14 -682 c35 -47 39 -61 18 -61 -25 0 -64 43
-71 79 -9 45 9 38 53 -18z m182 23 c0 -14 -4 -33 -10 -43 -10 -20 -67 -47 -77
-38 -11 11 60 107 79 107 4 0 8 -12 8 -26z m-30 -1090 c56 -113 51 -197 -15
-228 -69 -33 -161 -11 -190 45 -33 62 -10 137 79 258 l39 55 27 -32 c15 -18
42 -62 60 -98z m500 -143 c0 -10 -11 -43 -25 -73 -20 -44 -25 -68 -25 -140 l0
-87 33 -17 32 -17 -30 -8 c-31 -9 -223 9 -397 36 -18 3 -34 -3 -53 -20 -34
-32 -42 -31 -50 5 -9 43 1 64 45 95 39 27 448 243 463 244 4 1 7 -8 7 -18z
m-1024 -55 c178 -86 353 -194 360 -223 8 -29 -3 -73 -17 -73 -6 0 -25 12 -42
26 -34 29 -47 29 -172 1 -77 -17 -247 -30 -270 -21 -23 9 -18 20 16 35 l32 13
-7 83 c-4 55 -15 105 -31 143 -28 66 -30 80 -14 80 6 0 71 -29 145 -64z"/>
</g>
</svg>
